<svg width="83" height="82" viewBox="0 0 83 82" fill="none" xmlns="http://www.w3.org/2000/svg">
<g clip-path="url(#clip0_51_96)">
<path d="M57.5023 47.3569L66.7854 56.597L41.6626 81.6125L16.5433 56.6004L25.8264 47.3569L41.666 63.2106L57.5023 47.3569ZM73.3454 31.5849L82.7036 40.8249L73.4274 50.065L64.1443 40.8249L73.3454 31.5849ZM41.666 31.5849L50.9457 40.7433L41.6626 49.9867L32.3829 40.8249L41.6626 31.5883L41.666 31.5849ZM9.98328 31.5849L19.1878 40.8249L9.99011 49.9833L0.703613 40.8249L9.98328 31.5849ZM41.6694 0.0339355L66.7888 24.9712L57.5057 34.2079L41.666 18.4358L25.8298 34.2895L16.5467 25.0495L41.666 0.0373376L41.6694 0.0339355Z" fill="#FFBB0D"/>
</g>
<defs>
<clipPath id="clip0_51_96">
<rect width="82" height="81.65" fill="white" transform="translate(0.703613)"/>
</clipPath>
</defs>
</svg>
