<svg width="72" height="67" viewBox="0 0 72 67" fill="none" xmlns="http://www.w3.org/2000/svg">
<g clip-path="url(#clip0_141_21)">
<path d="M69.8131 0L39.1475 22.6904L44.85 9.31831L69.8131 0Z" fill="#E17726"/>
<path d="M1.73121 0.0268555L26.6276 9.32003L32.0423 22.8674L1.73121 0.0268555ZM57.4721 48.2562L71.026 48.5142L66.2891 64.6059L49.7504 60.0524L57.4721 48.2562ZM14 48.2562L21.693 60.0524L5.18227 64.6062L0.474121 48.5142L14 48.2562Z" fill="#E27625"/>
<path d="M31.3062 19.4166L31.86 37.3065L15.2856 36.5525L20.0002 29.4398L20.06 29.3715L31.3062 19.4166ZM39.9947 19.217L51.4126 29.372L51.4718 29.4401L56.1864 36.5527L39.6156 37.3065L39.9947 19.217ZM22.1785 48.3082L31.2286 55.3596L20.7157 60.4352L22.1785 48.3082ZM49.2957 48.307L50.7281 60.4354L40.2445 55.3591L49.2957 48.307Z" fill="#E27625"/>
<path d="M40.4757 54.6948L51.1139 59.846L41.2183 64.5489L41.321 61.4406L40.4757 54.6948ZM30.9933 54.6971L30.1812 61.3898L30.2479 64.5452L20.3291 59.846L30.9933 54.6971Z" fill="#D5BFB2"/>
<path d="M27.9215 39.6414L30.7014 45.4838L21.2368 42.7111L27.9215 39.6414ZM43.5506 39.6419L50.2668 42.7111L40.7712 45.4829L43.5506 39.6419Z" fill="#233447"/>
<path d="M22.9017 48.2483L21.3718 60.822L13.1719 48.5233L22.9017 48.2483ZM48.571 48.2486L58.3011 48.5233L50.0704 60.8225L48.571 48.2486ZM56.4257 35.8413L49.3446 43.058L43.885 40.5631L41.2711 46.0583L39.5576 36.6087L56.4257 35.8413ZM15.0428 35.8413L31.9143 36.6087L30.2005 46.0583L27.5861 40.564L22.1555 43.0583L15.0428 35.8413Z" fill="#CC6228"/>
<path d="M14.5659 34.3605L22.5774 42.4901L22.8549 50.5158L14.5659 34.3605ZM56.9147 34.3459L48.6106 50.5301L48.9232 42.4901L56.9147 34.3459ZM31.5228 34.8557L31.8452 36.8852L32.642 41.9412L32.1297 57.4699L29.7079 44.9953L29.7071 44.8663L31.5228 34.8557ZM39.9455 34.8275L41.766 44.8663L41.7651 44.9953L39.3372 57.5011L39.2412 54.3731L38.8624 41.8491L39.9455 34.8275Z" fill="#E27525"/>
<path d="M49.6352 42.167L49.3641 49.14L40.9126 55.7247L39.2041 54.5176L41.1192 44.6532L49.6352 42.167ZM21.8662 42.167L30.3526 44.6532L32.2677 54.5176L30.5592 55.7247L22.1074 49.1395L21.8662 42.167Z" fill="#F5841F"/>
<path d="M18.7119 58.3062L29.5246 63.4294L29.4788 61.2416L30.3836 60.4474H41.0852L42.0226 61.2388L41.9534 63.425L52.6977 58.319L47.4694 62.6394L41.1477 66.9813H30.2968L23.9792 62.6215L18.7119 58.3062Z" fill="#C0AC9D"/>
<path d="M39.7012 54.0129L41.2299 55.093L42.1257 62.2408L40.8293 61.1462H30.6464L29.3745 62.2629L30.241 55.0936L31.7703 54.0129H39.7012Z" fill="#161616"/>
<path d="M67.7885 0.628174L71.4696 11.6712L69.1707 22.837L70.8077 24.0997L68.5925 25.7897L70.2575 27.0756L68.0529 29.0831L69.4063 30.0632L65.8145 34.258L51.0829 29.9686L50.9553 29.9002L40.3394 20.9451L67.7885 0.628174ZM3.68402 0.628174L31.1334 20.9451L20.5172 29.9002L20.3896 29.9686L5.65801 34.258L2.06625 30.0632L3.41853 29.0839L1.21535 27.0756L2.87695 25.7911L0.628542 24.0963L2.32727 22.8328L0.00292969 11.6717L3.68402 0.628174Z" fill="#763E1A"/>
<path d="M50.3621 29.0304L65.9712 33.575L71.0422 49.2044H57.6634L48.4454 49.3205L55.1493 36.2533L50.3621 29.0304ZM21.1099 29.0304L16.3219 36.2533L23.0267 49.3205L13.8128 49.2044H0.458008L5.50059 33.5753L21.1099 29.0304ZM45.6141 9.24365L41.2482 21.0354L40.3216 36.9646L39.9671 41.9575L39.9389 54.7121H31.5329L31.5055 41.9815L31.1499 36.9604L30.223 21.0354L25.8577 9.24365H45.6141Z" fill="#F5841F"/>
</g>
<defs>
<clipPath id="clip0_141_21">
<rect width="71.4722" height="67" fill="white"/>
</clipPath>
</defs>
</svg>
